<?xml version="1.0" encoding="utf-8"?>
<svg width="41px" height="41px" viewBox="0 0 41 41" version="1.1" xmlns:xlink="http://www.w3.org/1999/xlink" xmlns="http://www.w3.org/2000/svg">
  <defs>
    <path d="M20.0565 0C20.0565 -1.75339e-06 20.0565 -1.75339e-06 20.0565 -1.75339e-06C23.4909 0.00165505 26.9253 -0.000732665 30.3597 0.00496864C30.921 0.00590043 31.4823 0.0118799 32.0435 0.0198975C32.4123 0.0251661 32.7811 0.0334859 33.1498 0.0448265C33.6524 0.060288 34.1755 0.0850722 34.6782 0.125036C34.8721 0.140454 35.0658 0.158912 35.2592 0.180571C36.5932 0.330013 38.0551 0.655265 38.9213 1.77367C39.1662 2.08976 39.3516 2.44789 39.4918 2.8214C39.884 3.86626 39.9752 5.01628 40.0332 6.12077C40.0966 7.3295 40.106 8.54292 40.108 9.75283C40.1137 13.1874 40.1113 16.6219 40.113 20.0565C40.113 20.0565 40.113 20.0565 40.113 20.0565C40.1113 23.4909 40.1137 26.9253 40.108 30.3597C40.1071 30.921 40.1011 31.4823 40.0931 32.0435C40.0878 32.4123 40.0795 32.7811 40.0682 33.1498C40.0527 33.6526 40.0279 34.1754 39.988 34.6782C39.9725 34.8721 39.9541 35.0659 39.9324 35.2592C39.7934 36.5 39.5099 37.8618 38.55 38.7436C37.6667 39.555 36.4121 39.8033 35.2593 39.9324C34.8416 39.9792 34.4113 40.0112 33.9922 40.0332C33.3559 40.0665 32.6768 40.0841 32.0438 40.0931C31.4826 40.1011 30.9214 40.1071 30.3602 40.108C26.9256 40.1137 23.4911 40.1113 20.0565 40.113C20.0565 40.113 20.0565 40.113 20.0565 40.113C16.6221 40.1113 13.1877 40.1137 9.7533 40.108C8.54329 40.106 7.32976 40.0966 6.12092 40.0332C5.0164 39.9752 3.86636 39.884 2.82146 39.4918C2.44796 39.3516 2.0898 39.1662 1.77372 38.9214C0.655312 38.0552 0.330032 36.5933 0.180584 35.2593C0.158924 35.066 0.140466 34.8723 0.125048 34.6783C0.0850839 34.1757 0.060297 33.6526 0.0448341 33.15C0.0334925 32.7813 0.0251706 32.4126 0.0199013 32.0438C0.0118831 31.4826 0.00590426 30.9214 0.00497246 30.3602C-0.000729822 26.9256 0.0016569 23.4911 -8.76697e-07 20.0565C-8.76697e-07 20.0565 -8.76697e-07 20.0565 -8.76697e-07 20.0565C0.00165563 16.6221 -0.00073242 13.1877 0.00496864 9.7533C0.00697725 8.54329 0.0163965 7.32976 0.0798359 6.12093C0.125791 5.24527 0.200397 4.35979 0.411213 3.50613C0.563687 2.88871 0.799274 2.28031 1.19162 1.77372C2.05781 0.655307 3.51974 0.330032 4.8537 0.180584C5.04703 0.158924 5.24075 0.140466 5.43467 0.125048C5.93736 0.0850814 6.46038 0.0602981 6.96302 0.0448341C7.33167 0.0334926 7.70042 0.0251706 8.06921 0.0199013C8.63038 0.0118831 9.1916 0.00590421 9.75283 0.00497246C13.1874 -0.000729577 16.6219 0.00165749 20.0565 0Z" id="path_1" />
    <clipPath id="mask_1">
      <use xlink:href="#path_1" />
    </clipPath>
  </defs>
  <g id="shape">
    <path d="M20.0565 0C20.0565 -1.75339e-06 20.0565 -1.75339e-06 20.0565 -1.75339e-06C23.4909 0.00165505 26.9253 -0.000732665 30.3597 0.00496864C30.921 0.00590043 31.4823 0.0118799 32.0435 0.0198975C32.4123 0.0251661 32.7811 0.0334859 33.1498 0.0448265C33.6524 0.060288 34.1755 0.0850722 34.6782 0.125036C34.8721 0.140454 35.0658 0.158912 35.2592 0.180571C36.5932 0.330013 38.0551 0.655265 38.9213 1.77367C39.1662 2.08976 39.3516 2.44789 39.4918 2.8214C39.884 3.86626 39.9752 5.01628 40.0332 6.12077C40.0966 7.3295 40.106 8.54292 40.108 9.75283C40.1137 13.1874 40.1113 16.6219 40.113 20.0565C40.113 20.0565 40.113 20.0565 40.113 20.0565C40.1113 23.4909 40.1137 26.9253 40.108 30.3597C40.1071 30.921 40.1011 31.4823 40.0931 32.0435C40.0878 32.4123 40.0795 32.7811 40.0682 33.1498C40.0527 33.6526 40.0279 34.1754 39.988 34.6782C39.9725 34.8721 39.9541 35.0659 39.9324 35.2592C39.7934 36.5 39.5099 37.8618 38.55 38.7436C37.6667 39.555 36.4121 39.8033 35.2593 39.9324C34.8416 39.9792 34.4113 40.0112 33.9922 40.0332C33.3559 40.0665 32.6768 40.0841 32.0438 40.0931C31.4826 40.1011 30.9214 40.1071 30.3602 40.108C26.9256 40.1137 23.4911 40.1113 20.0565 40.113C20.0565 40.113 20.0565 40.113 20.0565 40.113C16.6221 40.1113 13.1877 40.1137 9.7533 40.108C8.54329 40.106 7.32976 40.0966 6.12092 40.0332C5.0164 39.9752 3.86636 39.884 2.82146 39.4918C2.44796 39.3516 2.0898 39.1662 1.77372 38.9214C0.655312 38.0552 0.330032 36.5933 0.180584 35.2593C0.158924 35.066 0.140466 34.8723 0.125048 34.6783C0.0850839 34.1757 0.060297 33.6526 0.0448341 33.15C0.0334925 32.7813 0.0251706 32.4126 0.0199013 32.0438C0.0118831 31.4826 0.00590426 30.9214 0.00497246 30.3602C-0.000729822 26.9256 0.0016569 23.4911 -8.76697e-07 20.0565C-8.76697e-07 20.0565 -8.76697e-07 20.0565 -8.76697e-07 20.0565C0.00165563 16.6221 -0.00073242 13.1877 0.00496864 9.7533C0.00697725 8.54329 0.0163965 7.32976 0.0798359 6.12093C0.125791 5.24527 0.200397 4.35979 0.411213 3.50613C0.563687 2.88871 0.799274 2.28031 1.19162 1.77372C2.05781 0.655307 3.51974 0.330032 4.8537 0.180584C5.04703 0.158924 5.24075 0.140466 5.43467 0.125048C5.93736 0.0850814 6.46038 0.0602981 6.96302 0.0448341C7.33167 0.0334926 7.70042 0.0251706 8.06921 0.0199013C8.63038 0.0118831 9.1916 0.00590421 9.75283 0.00497246C13.1874 -0.000729577 16.6219 0.00165749 20.0565 0Z" id="Background" fill="#5586E7" fill-rule="evenodd" stroke="none" />
    <g clip-path="url(#mask_1)">
      <g id="Group" transform="translate(2.456501 -0.0435009)">
        <g id="Group">
          <path d="M34.391 9.479L18.321 0.201C17.856 -0.067 17.286 -0.067 16.821 0.201L0.75 9.479C0.285 9.748 0 10.242 0 10.778L0 29.338C0 29.874 0.285 30.367 0.75 30.637L16.82 39.914C17.052 40.048 17.31 40.113 17.57 40.113C17.83 40.113 18.088 40.048 18.32 39.914L34.39 30.637C34.855 30.367 35.14 29.874 35.14 29.338L35.14 10.778C35.141 10.241 34.856 9.745 34.391 9.479L34.391 9.479ZM32.141 28.469L17.571 36.88L3.001 28.469L3.001 11.644L17.571 3.232L32.141 11.644L32.141 28.469L32.141 28.469Z" id="Shape" fill="#FFFFFF" fill-rule="evenodd" stroke="none" />
          <path d="M0 4.849L7.702 9.277C7.745 9.302 7.789 9.324 7.832 9.34L9.143 10.099C9.338 10.21 9.551 10.265 9.768 10.265C9.983 10.265 10.2 10.21 10.393 10.099C10.778 9.875 11.015 9.462 11.015 9.018L11.015 1.514L8.397 0L0 4.849L0 4.849Z" transform="translate(9.175 6.0480003)" id="Shape" fill="#FFFFFF" fill-opacity="0.827451" fill-rule="evenodd" stroke="none" />
          <path d="M0.625002 11.587C0.817001 11.698 1.031 11.753 1.248 11.753C1.463 11.753 1.681 11.696 1.873 11.584L8.373 7.812L8.373 4.833L0 0L0 10.508C1.90735e-06 10.952 0.238001 11.364 0.625002 11.587L0.625002 11.587Z" transform="translate(21.328999 8.222)" id="Shape" fill="#FFFFFF" fill-opacity="0.6784314" fill-rule="evenodd" stroke="none" />
          <path d="M0.623997 7.471L7.106 11.241L9.76 9.708L9.76 0L2.01 4.5C1.959 4.526 1.916 4.561 1.871 4.594L0.622999 5.317C0.237999 5.54 0 5.95 0 6.396C0.000997543 6.836 0.238997 7.249 0.623997 7.471L0.623997 7.471Z" transform="translate(19.939003 17.355)" id="Shape" fill="#FFFFFF" fill-opacity="0.50980395" fill-rule="evenodd" stroke="none" />
          <path d="M0.625 0.167271C0.238001 0.39027 0 0.802271 0 1.24927L0 8.74427L2.617 10.2573L10.953 5.44527L1.875 0.173273C1.489 -0.0547295 1.014 -0.0587292 0.625 0.167271L0.625 0.167271Z" transform="translate(14.952 23.80773)" id="Shape" fill="#FFFFFF" fill-opacity="0.3372549" fill-rule="evenodd" stroke="none" />
          <path d="M7.752 0.169264C7.367 -0.0537357 6.895 -0.0577354 6.508 0.165264L0 3.86827L0 6.99327L8.373 11.8253L8.373 1.24926C8.371 0.804264 8.137 0.393263 7.752 0.169264L7.752 0.169264Z" transform="translate(5.439001 20.066736)" id="Shape" fill="#FFFFFF" fill-opacity="0.16862746" fill-rule="evenodd" stroke="none" />
          <path d="M9.084 3.732L2.592 0L0 1.496L0 11.065L9.08 5.897C9.469 5.675 9.709 5.262 9.711 4.816C9.712 4.368 9.472 3.954 9.084 3.732L9.084 3.732Z" transform="translate(5.439 11.556)" id="Shape" fill="#FFFFFF" fill-rule="evenodd" stroke="none" />
        </g>
      </g>
    </g>
  </g>
</svg>